M48
; DRILL file {KiCad 9.0.2} date 2025-05-31T16:15:50-0400
; FORMAT={-:-/ absolute / metric / decimal}
; #@! TF.CreationDate,2025-05-31T16:15:50-04:00
; #@! TF.GenerationSoftware,Kicad,Pcbnew,9.0.2
; #@! TF.FileFunction,Plated,1,2,PTH
FMAT,2
METRIC
; #@! TA.AperFunction,Plated,PTH,ViaDrill
T1C0.305
; #@! TA.AperFunction,Plated,PTH,ViaDrill
T2C0.380
; #@! TA.AperFunction,Plated,PTH,ComponentDrill
T3C0.500
; #@! TA.AperFunction,Plated,PTH,ComponentDrill
T4C3.200
%
G90
G05
T1
X108.2Y-118.6
X108.2Y-120.4
X110.95Y-114.25
X111.499Y-115.5
X112.3Y-112.75
X114.85Y-112.0
X114.85Y-113.184
T2
X109.75Y-101.75
X109.75Y-102.25
X109.75Y-102.75
X109.75Y-106.75
X109.75Y-108.25
X109.75Y-108.75
X109.75Y-109.25
X109.75Y-115.75
X109.75Y-116.25
X109.75Y-116.75
X109.75Y-122.25
X109.75Y-122.75
X109.75Y-123.25
X109.778Y-104.25
X110.25Y-104.25
X110.25Y-106.75
X110.75Y-104.25
X110.75Y-106.75
X117.0Y-109.2
X117.0Y-111.5
X117.0Y-114.0
X117.0Y-115.85
X117.5Y-109.2
X117.5Y-111.5
X117.5Y-114.0
X117.5Y-115.85
X118.0Y-109.2
X118.0Y-111.5
X118.0Y-114.0
X118.0Y-115.85
T3
X112.6Y-104.0
X112.6Y-121.0
X113.303Y-102.303
X113.303Y-105.697
X113.303Y-119.303
X113.303Y-122.697
X115.0Y-101.6
X115.0Y-106.4
X115.0Y-118.6
X115.0Y-123.4
X116.697Y-102.303
X116.697Y-105.697
X116.697Y-119.303
X116.697Y-122.697
X117.4Y-104.0
X117.4Y-121.0
T4
X115.0Y-104.0
X115.0Y-121.0
T3
G00X101.46Y-101.01
M15
G01X100.86Y-101.01
M16
G05
G00X101.46Y-109.99
M15
G01X100.86Y-109.99
M16
G05
G00X101.46Y-115.01
M15
G01X100.86Y-115.01
M16
G05
G00X101.46Y-123.99
M15
G01X100.86Y-123.99
M16
G05
G00X107.41Y-101.37
M15
G01X106.81Y-101.37
M16
G05
G00X107.41Y-109.63
M15
G01X106.81Y-109.63
M16
G05
G00X107.41Y-115.37
M15
G01X106.81Y-115.37
M16
G05
G00X107.41Y-123.63
M15
G01X106.81Y-123.63
M16
G05
G00X115.59Y-108.37
M15
G01X116.19Y-108.37
M16
G05
G00X115.59Y-116.63
M15
G01X116.19Y-116.63
M16
G05
G00X121.54Y-108.01
M15
G01X122.14Y-108.01
M16
G05
G00X121.54Y-116.99
M15
G01X122.14Y-116.99
M16
G05
M30
