%TF.GenerationSoftware,KiCad,Pcbnew,9.0.2*%
%TF.CreationDate,2025-05-31T16:15:56-04:00*%
%TF.ProjectId,pd-buddy-wye,70642d62-7564-4647-992d-7779652e6b69,v1.1*%
%TF.SameCoordinates,Original*%
%TF.FileFunction,Paste,Top*%
%TF.FilePolarity,Positive*%
%FSLAX46Y46*%
G04 Gerber Fmt 4.6, Leading zero omitted, Abs format (unit mm)*
G04 Created by KiCad (PCBNEW 9.0.2) date 2025-05-31 16:15:56*
%MOMM*%
%LPD*%
G01*
G04 APERTURE LIST*
G04 Aperture macros list*
%AMRoundRect*
0 Rectangle with rounded corners*
0 $1 Rounding radius*
0 $2 $3 $4 $5 $6 $7 $8 $9 X,Y pos of 4 corners*
0 Add a 4 corners polygon primitive as box body*
4,1,4,$2,$3,$4,$5,$6,$7,$8,$9,$2,$3,0*
0 Add four circle primitives for the rounded corners*
1,1,$1+$1,$2,$3*
1,1,$1+$1,$4,$5*
1,1,$1+$1,$6,$7*
1,1,$1+$1,$8,$9*
0 Add four rect primitives between the rounded corners*
20,1,$1+$1,$2,$3,$4,$5,0*
20,1,$1+$1,$4,$5,$6,$7,0*
20,1,$1+$1,$6,$7,$8,$9,0*
20,1,$1+$1,$8,$9,$2,$3,0*%
G04 Aperture macros list end*
%ADD10R,0.700000X0.300000*%
%ADD11RoundRect,0.250000X0.350000X0.450000X-0.350000X0.450000X-0.350000X-0.450000X0.350000X-0.450000X0*%
G04 APERTURE END LIST*
D10*
%TO.C,U1*%
X113980000Y-115250000D03*
X113980000Y-114750000D03*
X113980000Y-114250000D03*
X113980000Y-113750000D03*
X113980000Y-113250000D03*
X113980000Y-112750000D03*
X113980000Y-112250000D03*
X113980000Y-111750000D03*
X113980000Y-111250000D03*
X113980000Y-110750000D03*
X113980000Y-110250000D03*
X113980000Y-109750000D03*
X115680000Y-110000000D03*
X115680000Y-110500000D03*
X115680000Y-111000000D03*
X115680000Y-111500000D03*
X115680000Y-112000000D03*
X115680000Y-112500000D03*
X115680000Y-113000000D03*
X115680000Y-113500000D03*
X115680000Y-114000000D03*
X115680000Y-114500000D03*
X115680000Y-115000000D03*
X115680000Y-115500000D03*
%TD*%
D11*
%TO.C,R1*%
X109000000Y-112500000D03*
X107000000Y-112500000D03*
%TD*%
%TO.C,R2*%
X105000000Y-112500000D03*
X103000000Y-112500000D03*
%TD*%
D10*
%TO.C,J1*%
X109020000Y-102750000D03*
X109020000Y-103250000D03*
X109020000Y-103750000D03*
X109020000Y-104250000D03*
X109020000Y-104750000D03*
X109020000Y-105250000D03*
X109020000Y-105750000D03*
X109020000Y-106250000D03*
X109020000Y-106750000D03*
X109020000Y-107250000D03*
X109020000Y-107750000D03*
X109020000Y-108250000D03*
X107320000Y-108000000D03*
X107320000Y-107500000D03*
X107320000Y-107000000D03*
X107320000Y-106500000D03*
X107320000Y-106000000D03*
X107320000Y-105500000D03*
X107320000Y-105000000D03*
X107320000Y-104500000D03*
X107320000Y-104000000D03*
X107320000Y-103500000D03*
X107320000Y-103000000D03*
X107320000Y-102500000D03*
%TD*%
%TO.C,J2*%
X109020000Y-116750000D03*
X109020000Y-117250000D03*
X109020000Y-117750000D03*
X109020000Y-118250000D03*
X109020000Y-118750000D03*
X109020000Y-119250000D03*
X109020000Y-119750000D03*
X109020000Y-120250000D03*
X109020000Y-120750000D03*
X109020000Y-121250000D03*
X109020000Y-121750000D03*
X109020000Y-122250000D03*
X107320000Y-122000000D03*
X107320000Y-121500000D03*
X107320000Y-121000000D03*
X107320000Y-120500000D03*
X107320000Y-120000000D03*
X107320000Y-119500000D03*
X107320000Y-119000000D03*
X107320000Y-118500000D03*
X107320000Y-118000000D03*
X107320000Y-117500000D03*
X107320000Y-117000000D03*
X107320000Y-116500000D03*
%TD*%
M02*
